<?xml version="1.0" encoding="UTF-8" standalone="no"?>
<svg
   sodipodi:docname="5 - Soup.svg"
   inkscape:version="1.1.1 (1:1.1+202109281949+c3084ef5ed)"
   id="svg831"
   version="1.1"
   viewBox="0 0 22.577778 22.577778"
   height="64pt"
   width="64pt"
   inkscape:export-filename="/media/taufikramadhan/Data/Tr Design Studio/Project Design/TR Creative Design/Icon Design/Project Hiring/Icon Icons/010 - Food/Send/1 - Line/5 - Soup.png"
   inkscape:export-xdpi="576"
   inkscape:export-ydpi="576"
   xmlns:inkscape="http://www.inkscape.org/namespaces/inkscape"
   xmlns:sodipodi="http://sodipodi.sourceforge.net/DTD/sodipodi-0.dtd"
   xmlns="http://www.w3.org/2000/svg"
   xmlns:svg="http://www.w3.org/2000/svg"
   xmlns:rdf="http://www.w3.org/1999/02/22-rdf-syntax-ns#"
   xmlns:cc="http://creativecommons.org/ns#"
   xmlns:dc="http://purl.org/dc/elements/1.1/">
  <defs
     id="defs825">
    <pattern
       y="0"
       x="0"
       height="6"
       width="6"
       patternUnits="userSpaceOnUse"
       id="EMFhbasepattern" />
    <pattern
       y="0"
       x="0"
       height="6"
       width="6"
       patternUnits="userSpaceOnUse"
       id="EMFhbasepattern-9" />
    <pattern
       y="0"
       x="0"
       height="6"
       width="6"
       patternUnits="userSpaceOnUse"
       id="EMFhbasepattern-0" />
    <pattern
       y="0"
       x="0"
       height="6"
       width="6"
       patternUnits="userSpaceOnUse"
       id="EMFhbasepattern-7" />
    <pattern
       y="0"
       x="0"
       height="6"
       width="6"
       patternUnits="userSpaceOnUse"
       id="EMFhbasepattern-2" />
    <pattern
       y="0"
       x="0"
       height="6"
       width="6"
       patternUnits="userSpaceOnUse"
       id="EMFhbasepattern-98" />
    <pattern
       y="0"
       x="0"
       height="6"
       width="6"
       patternUnits="userSpaceOnUse"
       id="EMFhbasepattern-6" />
    <pattern
       y="0"
       x="0"
       height="6"
       width="6"
       patternUnits="userSpaceOnUse"
       id="EMFhbasepattern-01" />
    <pattern
       y="0"
       x="0"
       height="6"
       width="6"
       patternUnits="userSpaceOnUse"
       id="EMFhbasepattern-07" />
    <pattern
       y="0"
       x="0"
       height="6"
       width="6"
       patternUnits="userSpaceOnUse"
       id="EMFhbasepattern-8" />
    <pattern
       y="0"
       x="0"
       height="6"
       width="6"
       patternUnits="userSpaceOnUse"
       id="EMFhbasepattern-4" />
    <pattern
       y="0"
       x="0"
       height="6"
       width="6"
       patternUnits="userSpaceOnUse"
       id="EMFhbasepattern-40" />
    <pattern
       y="0"
       x="0"
       height="6"
       width="6"
       patternUnits="userSpaceOnUse"
       id="EMFhbasepattern-08" />
    <pattern
       y="0"
       x="0"
       height="6"
       width="6"
       patternUnits="userSpaceOnUse"
       id="EMFhbasepattern-04" />
    <pattern
       y="0"
       x="0"
       height="6"
       width="6"
       patternUnits="userSpaceOnUse"
       id="EMFhbasepattern-014" />
    <pattern
       y="0"
       x="0"
       height="6"
       width="6"
       patternUnits="userSpaceOnUse"
       id="EMFhbasepattern-27" />
    <pattern
       y="0"
       x="0"
       height="6"
       width="6"
       patternUnits="userSpaceOnUse"
       id="EMFhbasepattern-09" />
    <pattern
       y="0"
       x="0"
       height="6"
       width="6"
       patternUnits="userSpaceOnUse"
       id="EMFhbasepattern-5" />
    <pattern
       y="0"
       x="0"
       height="6"
       width="6"
       patternUnits="userSpaceOnUse"
       id="EMFhbasepattern-018" />
  </defs>
  <sodipodi:namedview
     inkscape:document-rotation="0"
     inkscape:snap-global="true"
     inkscape:snap-nodes="false"
     inkscape:bbox-nodes="true"
     inkscape:snap-bbox="true"
     showguides="true"
     inkscape:snap-midpoints="true"
     inkscape:snap-smooth-nodes="true"
     inkscape:snap-intersection-paths="true"
     inkscape:object-paths="true"
     inkscape:showpageshadow="false"
     inkscape:pagecheckerboard="true"
     inkscape:window-maximized="1"
     inkscape:window-y="31"
     inkscape:window-x="0"
     inkscape:window-height="705"
     inkscape:window-width="1366"
     units="pt"
     showgrid="false"
     inkscape:current-layer="layer1"
     inkscape:document-units="pt"
     inkscape:cy="42.525177"
     inkscape:cx="46.892628"
     inkscape:zoom="2.175182"
     inkscape:pageshadow="2"
     inkscape:pageopacity="0.0"
     borderopacity="1.0"
     bordercolor="#666666"
     pagecolor="#ffffff"
     id="base">
    <inkscape:grid
       id="grid1378"
       type="xygrid" />
    <sodipodi:guide
       inkscape:locked="false"
       id="guide1380"
       orientation="78.000048,0"
       position="0.97013831,21.607643" />
    <sodipodi:guide
       inkscape:locked="false"
       id="guide1382"
       orientation="0,78.000005"
       position="0.97013831,0.97013129" />
    <sodipodi:guide
       inkscape:locked="false"
       id="guide1384"
       orientation="-78.000048,0"
       position="21.607639,0.97013129" />
    <sodipodi:guide
       inkscape:locked="false"
       id="guide1386"
       orientation="0,-78.000005"
       position="21.607639,21.607643" />
  </sodipodi:namedview>
  <metadata
     id="metadata828">
    <rdf:RDF>
      <cc:Work
         rdf:about="">
        <dc:format>image/svg+xml</dc:format>
        <dc:type
           rdf:resource="http://purl.org/dc/dcmitype/StillImage" />
      </cc:Work>
    </rdf:RDF>
  </metadata>
  <g
     transform="translate(0,-274.42223)"
     id="layer1"
     inkscape:groupmode="layer"
     inkscape:label="Icon">
    <path
       id="ellipse2742"
       style="color:#000000;display:inline;fill:#000000;stroke-width:1.25806;stroke-linecap:round;stroke-linejoin:round;-inkscape-stroke:none;paint-order:markers fill stroke"
       d="m 11.265485,275.39313 c -0.05236,0.004 -0.103147,0.0194 -0.148228,0.0462 -0.157474,0.095 -0.208127,0.29959 -0.11312,0.45704 0.219423,0.3657 0.258007,0.63456 0.233392,0.8848 -0.02462,0.25024 -0.127484,0.49379 -0.250945,0.76129 -0.123462,0.2675 -0.269723,0.55594 -0.309457,0.90692 -0.03973,0.35099 0.05692,0.75159 0.346513,1.13771 0.110263,0.14584 0.317501,0.17544 0.464185,0.0663 0.14748,-0.11045 0.177203,-0.31966 0.06631,-0.46679 -0.209702,-0.2796 -0.238517,-0.46085 -0.215839,-0.66117 0.02268,-0.20032 0.126712,-0.43132 0.252896,-0.70472 0.126183,-0.2734 0.27166,-0.59155 0.309457,-0.97583 0.0378,-0.38426 -0.04649,-0.82338 -0.32636,-1.28983 -0.06418,-0.10782 -0.183583,-0.17047 -0.308807,-0.16189 z m 4.924651,1.83269 c -0.775339,-0.0101 -1.514453,0.48934 -1.64025,1.26058 l -0.388122,2.37618 c -0.888108,-0.22615 -1.857556,-0.34911 -2.872875,-0.34911 -2.0777608,0 -3.9641309,0.51682 -5.3537299,1.37565 -1.3703444,1.11112 -2.2799674,2.34361 -2.2799674,3.85456 0.00452,1.27073 0.2842206,2.35663 0.7580388,3.2649 -0.6910151,0.67677 -1.1123538,1.49516 -1.1123537,2.38008 10e-8,1.34936 0.9621552,2.52141 2.4106413,3.3364 1.4484863,0.81502 3.4126725,1.3048 5.5773709,1.3048 2.164698,0 4.129535,-0.48978 5.578021,-1.3048 1.448485,-0.81499 2.409991,-1.98704 2.409991,-3.3364 0,-0.88449 -0.4219,-1.70152 -1.112354,-2.37813 0.47374,-0.90739 0.753426,-1.99752 0.758689,-3.26685 0,-1.85167 -1.121611,-3.07517 -2.107034,-3.74404 l 0.999233,-2.63884 c 0.327906,-0.86614 -0.2831,-1.83165 -1.194269,-2.07582 -0.142372,-0.0381 -0.287448,-0.0574 -0.431029,-0.0591 z m -6.5349964,0.64881 c -0.1234619,0.26751 -0.2697227,0.55789 -0.3094567,0.90888 -0.039734,0.35098 0.056923,0.74899 0.3465136,1.1351 0.1094673,0.14668 0.3168245,0.17746 0.4641845,0.0689 0.147479,-0.11045 0.177201,-0.31964 0.06631,-0.46677 -0.209701,-0.27959 -0.2391667,-0.4628 -0.21649,-0.66312 0.02268,-0.20032 0.127363,-0.42938 0.253547,-0.70278 0.07775,-0.16713 0.0049,-0.36562 -0.16253,-0.44274 -0.220812,-0.0678 -0.3557565,0.009 -0.4420804,0.16253 z m 2.6635374,0 c -0.123462,0.26751 -0.269722,0.55789 -0.309457,0.90888 -0.03973,0.35098 0.05432,0.74899 0.343914,1.1351 0.109628,0.14833 0.318972,0.17924 0.466786,0.0689 0.147478,-0.11045 0.177199,-0.31964 0.06631,-0.46677 -0.209702,-0.27959 -0.239168,-0.4628 -0.21649,-0.66312 0.02268,-0.20032 0.127363,-0.42938 0.253546,-0.70278 0.07775,-0.16713 0.0049,-0.36562 -0.16253,-0.44274 -0.203955,-0.0819 -0.355457,0.0142 -0.442081,0.16253 z m 3.872109,0.0189 c 0.08657,-6.7e-4 0.173179,0.0101 0.258097,0.0324 0.543486,0.14564 0.902451,0.77615 0.742436,1.19882 l -1.700711,4.49102 c -0.152703,-0.0975 -0.322012,-0.17309 -0.505793,-0.22233 -0.184938,-0.0496 -0.371041,-0.0683 -0.553251,-0.0599 l 0.774292,-4.73936 c 0.06138,-0.37634 0.517468,-0.69725 0.98493,-0.70083 z m -0.129373,0.28279 c -0.01082,-3e-4 -0.02169,-8e-5 -0.03251,6.7e-4 -0.0879,0.005 -0.170182,0.0449 -0.228842,0.11046 -0.123177,0.1375 -0.110923,0.34897 0.0273,0.47133 0,0 0.226732,0.18268 0.252895,0.63907 0.0098,0.18423 0.167536,0.32537 0.351715,0.31466 0.183196,-0.0113 0.322793,-0.1685 0.312058,-0.35171 -0.03997,-0.69708 -0.474587,-1.10066 -0.474587,-1.10066 -0.05756,-0.0512 -0.131078,-0.0808 -0.208039,-0.0839 z m -4.772524,3.00291 c 0.982536,0 1.917955,0.12241 2.764956,0.34327 l -0.126123,0.77234 c -0.822908,-0.15873 -1.71183,-0.24575 -2.638833,-0.24575 -2.0683225,0 -3.9433021,0.42638 -5.3296757,1.13771 -0.5112398,0.26231 -0.9610627,0.56813 -1.3262428,0.91017 0.3300587,-0.61276 0.8947891,-1.17344 1.6532527,-1.6422 1.2607809,-0.77921 3.0360839,-1.27554 5.0026658,-1.27554 z m 5.284817,1.46018 c 0.616791,0.42785 1.082592,0.92145 1.370451,1.45495 -0.413633,-0.3863 -0.93746,-0.72681 -1.538181,-1.01223 z m -5.284817,0.0754 c 0.893039,0 1.746301,0.0858 2.530913,0.2386 l -0.09037,0.55456 c -0.519455,0.24234 -0.936556,0.71786 -1.098702,1.32298 -0.0766,0.28587 -0.09049,0.58275 -0.04291,0.87247 l -0.07996,0.0292 c -0.173002,0.0619 -0.263204,0.25213 -0.201538,0.42519 0.06287,0.17336 0.254698,0.26257 0.427779,0.19894 l 0.5474,-0.19894 c 0.163969,-0.0596 0.345076,-0.0596 0.509044,0 l 0.179432,0.0657 c 0.310802,0.11297 0.652026,0.11297 0.962827,0 l 0.179432,-0.0657 c 0.163969,-0.0596 0.345075,-0.0596 0.509043,0 l 0.547401,0.19894 c 0.172318,0.0619 0.362294,-0.0269 0.425178,-0.19894 0.06192,-0.17232 -0.02697,-0.3623 -0.198937,-0.42519 l -0.06826,-0.0247 c 0.122019,-0.57143 -0.0047,-1.14657 -0.313358,-1.58824 l 0.156028,-0.41217 c 1.174882,0.56903 1.906093,1.31629 2.07323,2.09208 -0.162237,0.94118 -0.854885,1.81056 -1.951007,2.488 -1.260781,0.77921 -3.03608,1.27813 -5.002666,1.27813 -1.9665851,0 -3.7418841,-0.49892 -5.0026654,-1.27813 -1.0961213,-0.67744 -1.7887705,-1.54682 -1.951007,-2.488 0.1583063,-0.74277 0.8292784,-1.45771 1.9263025,-2.02058 1.2640073,-0.64855 3.0513469,-1.06425 5.0273699,-1.06425 z m -0.665722,1.00054 c -0.182821,6.6e-4 -0.330849,0.14874 -0.331561,0.33156 -3e-6,0.54756 0.44972,0.99988 0.997283,0.99988 0.547563,0 0.997936,-0.45232 0.997932,-0.99988 -6.99e-4,-0.18282 -0.14874,-0.33085 -0.33156,-0.33156 -0.184089,-10e-4 -0.334097,0.14747 -0.334812,0.33156 10e-7,0.18778 -0.143784,0.33416 -0.33156,0.33416 -0.187776,0 -0.334163,-0.14638 -0.334161,-0.33416 -7.12e-4,-0.18282 -0.148741,-0.33085 -0.331561,-0.33156 z m 3.88316,0.28215 c 0.101752,-3.4e-4 0.204406,0.0126 0.306208,0.0396 0.604047,0.16185 0.983447,0.78148 0.87961,1.44978 -0.266389,-0.0635 -0.546249,-0.0477 -0.806147,0.0468 l -0.181383,0.0636 c -0.16397,0.0596 -0.342476,0.0596 -0.506444,0 l -0.181383,-0.0636 c -0.252527,-0.0918 -0.526494,-0.10933 -0.786644,-0.052 -0.01259,-0.1594 0.0021,-0.32196 0.04421,-0.47913 0.163737,-0.61108 0.682538,-1.00249 1.231975,-1.00509 z m -5.7086943,0.0501 c -0.113483,-10e-4 -0.2200776,0.0543 -0.2828015,0.14887 l -0.6657219,0.99793 c -0.1016938,0.1533 -0.059768,0.36002 0.093617,0.46158 l 0.9972822,0.66638 c 0.1534264,0.10216 0.3606419,0.0601 0.4622347,-0.0936 l 0.6657218,-0.99727 c 0.102138,-0.15343 0.06017,-0.36065 -0.093617,-0.46224 l -0.9972823,-0.66572 c -0.053199,-0.0355 -0.1154934,-0.0548 -0.179433,-0.0559 z m 0.088416,0.79509 0.4420809,0.29515 -0.294504,0.44469 -0.4446812,-0.29711 z m 2.5692703,0.58121 c -0.02874,-2e-5 -0.05737,0.004 -0.08516,0.0113 -0.08596,0.0223 -0.159455,0.078 -0.204138,0.15473 l -0.16448,0.288 c -0.092,0.15875 -0.03821,0.362 0.120272,0.45444 0.158737,0.092 0.361989,0.0383 0.454433,-0.12027 l 0.167081,-0.28996 c 0.09201,-0.15956 0.03694,-0.36351 -0.122872,-0.45509 -0.05038,-0.0284 -0.107295,-0.0431 -0.165131,-0.0429 z m -4.1614115,0.62086 c -0.1828192,6.7e-4 -0.3308471,0.14874 -0.3315608,0.33156 -7.323e-4,0.18383 0.1477257,0.33345 0.3315608,0.33417 h 0.334161 c 0.1838351,-6.7e-4 0.3322807,-0.15034 0.3315607,-0.33417 -6.99e-4,-0.18282 -0.1487415,-0.33084 -0.3315607,-0.33156 z m 7.4523135,0.68781 -0.16708,0.28735 c -0.092,0.15874 -0.03821,0.36199 0.12027,0.45443 0.159312,0.0937 0.36452,0.0398 0.457035,-0.12027 l 0.16448,-0.28995 c 0.092,-0.15875 0.03821,-0.36198 -0.120271,-0.45444 -0.196357,-0.0927 -0.389035,10e-4 -0.454434,0.12291 z m -6.4524306,0.97519 c 0,0.54756 0.4497236,1.00053 0.9972825,1.00053 0.5475588,0 1.0005331,-0.45297 1.0005331,-1.00053 0,-0.54756 -0.446117,-0.99727 -1.0005331,-0.9904 -0.5544162,0.006 -0.9972825,0.4514 -0.9972825,0.9904 z m 3.6614696,0 c 0,0.54756 0.449725,1.00053 0.997284,1.00053 0.547558,0 0.999882,-0.45297 0.999882,-1.00053 0,-0.54756 -0.445466,-0.99727 -0.999882,-0.9904 -0.554417,0.006 -0.997284,0.4514 -0.997284,0.9904 z m -1.081147,-0.6189 c -0.159423,0.0916 -0.214436,0.29501 -0.122872,0.45444 l 0.16708,0.28735 c 0.09155,0.15942 0.295015,0.21443 0.454433,0.12291 0.160046,-0.0925 0.214048,-0.29772 0.120272,-0.45704 l -0.16448,-0.28744 c -0.141199,-0.18187 -0.30227,-0.19389 -0.454433,-0.12027 z m -1.5830401,0.28735 c 0.1877764,0 0.3348111,0.14379 0.3348111,0.33156 0,0.18778 -0.1470347,0.33417 -0.3348111,0.33417 -0.1877765,0 -0.3315608,-0.14639 -0.3315608,-0.33417 0,-0.18777 0.1437843,-0.33156 0.3315608,-0.33156 z m 3.6614711,0 c 0.187776,0 0.334159,0.14379 0.33416,0.33156 0,0.18778 -0.146384,0.33417 -0.33416,0.33417 -0.187776,0 -0.331561,-0.14639 -0.331561,-0.33417 0,-0.18777 0.143785,-0.33156 0.331561,-0.33156 z m -8.3507793,0.37382 c 0.3630283,0.41301 0.8150262,0.78484 1.3333942,1.1052 1.3895998,0.85882 3.2759651,1.37631 5.3537291,1.37631 2.077766,0 3.964782,-0.51749 5.354381,-1.37631 0.518082,-0.32018 0.969817,-0.69181 1.332744,-1.10454 -0.631126,2.1027 -2.252771,3.32933 -4.131507,3.88641 -0.175428,0.0526 -0.275368,0.23712 -0.223641,0.41282 0.05264,0.17544 0.237124,0.27538 0.412827,0.22364 0.115766,-0.0343 0.231038,-0.0716 0.345213,-0.11121 l -0.172932,0.46484 c -0.09142,0.24581 -0.325438,0.40762 -0.587708,0.40762 H 8.9595123 c -0.2622674,0 -0.4956309,-0.16179 -0.5870575,-0.40762 l -0.1729315,-0.46484 c 0.1141398,0.0396 0.2294866,0.0769 0.345213,0.11121 0.1754969,0.0513 0.3595282,-0.0486 0.4121757,-0.22364 0.051779,-0.17551 -0.047823,-0.35991 -0.2229908,-0.41282 -1.8789294,-0.55714 -3.5011699,-1.78396 -4.1321565,-3.88707 z m 0.1631801,1.85024 c 0.6622683,0.9826 1.5723184,1.7173 2.5959249,2.21496 l 0.3874707,1.04539 c 0.1876184,0.50445 0.6729666,0.8406 1.2111717,0.8406 h 4.6587529 c 0.538207,0 1.024206,-0.33615 1.211822,-0.8406 l 0.38747,-1.04539 c 1.023124,-0.49745 1.932446,-1.23174 2.594626,-2.21365 0.523675,0.55383 0.798995,1.15633 0.798995,1.78717 0,1.02965 -0.748912,2.01312 -2.071278,2.75716 -1.322367,0.74405 -3.18753,1.21832 -5.251012,1.21832 -2.0634803,0 -3.9286445,-0.47427 -5.2510106,-1.21832 -1.3223658,-0.74404 -2.0712786,-1.72751 -2.071279,-2.75716 0,-0.63113 0.2743899,-1.23429 0.7983464,-1.78848 z"
       sodipodi:nodetypes="cccssscccsssccsccscccsssssccccssscscccsccccscccscccccccsccccccccccccccsccssccsccccsccscccccccccccccccccsssccsccscccscccccccccccccccccccccccccccccccccccccsccscccccccccssscsssscscccccccssssssssssccssccccccsscccccccccsscccsssssc" />
  </g>
</svg>
